<!DOCTYPE svg PUBLIC "-//W3C//DTD SVG 1.1//EN" "http://www.w3.org/Graphics/SVG/1.1/DTD/svg11.dtd">
<svg version="1.1" xmlns="http://www.w3.org/2000/svg"
 width="128.000000pt" height="89.000000pt" viewBox="0 0 128.000000 89.000000"
 preserveAspectRatio="xMidYMid meet">

<g transform="translate(0.000000,89.000000) scale(0.100000,-0.100000)"
fill="currentColor" stroke="none">
<path d="M20 870 c-27 -27 -25 -62 3 -88 23 -22 28 -22 361 -22 l337 0 24 25
c30 29 31 45 4 79 l-20 26 -345 0 c-331 0 -345 -1 -364 -20z"/>
<path d="M16 608 c-21 -30 -20 -61 2 -81 17 -15 57 -17 370 -17 l352 0 15 24
c19 29 11 72 -15 86 -11 6 -159 10 -364 10 l-345 0 -15 -22z"/>
<path d="M917 612 c-12 -14 -17 -43 -19 -127 l-3 -110 -110 -3 c-84 -2 -113
-7 -127 -19 -23 -20 -23 -55 0 -82 15 -18 29 -21 127 -23 l110 -3 3 -109 c1
-61 8 -116 14 -123 14 -17 82 -17 96 0 6 7 13 62 14 123 l3 109 113 5 c98 4
116 8 128 24 19 26 18 49 -3 75 -16 18 -30 21 -128 23 l-110 3 -3 110 c-3 121
-13 145 -62 145 -15 0 -34 -8 -43 -18z"/>
<path d="M17 352 c-21 -23 -22 -51 -1 -80 15 -22 19 -22 238 -22 203 0 224 2
239 18 22 24 21 65 -1 85 -16 15 -48 17 -239 17 -200 0 -221 -2 -236 -18z"/>
</g>
</svg>
