<!DOCTYPE svg PUBLIC "-//W3C//DTD SVG 1.1//EN" "http://www.w3.org/Graphics/SVG/1.1/DTD/svg11.dtd">
<svg version="1.1" xmlns="http://www.w3.org/2000/svg"
 width="120.000000pt" height="81.000000pt" viewBox="0 0 120.000000 81.000000"
 preserveAspectRatio="xMidYMid meet">

<g transform="translate(0.000000,81.000000) scale(0.100000,-0.100000)"
fill="currentColor" stroke="none">
<path d="M20 790 c-27 -27 -25 -62 3 -88 23 -22 28 -22 361 -22 l337 0 24 25
c30 29 31 45 4 79 l-20 26 -345 0 c-331 0 -345 -1 -364 -20z"/>
<path d="M16 528 c-21 -30 -20 -61 2 -81 17 -15 57 -17 370 -17 l352 0 15 24
c19 29 11 72 -15 86 -11 6 -159 10 -364 10 l-345 0 -15 -22z"/>
<path d="M1055 510 l-29 -30 54 -56 55 -55 34 37 33 36 -48 49 c-27 27 -53 49
-59 49 -6 0 -24 -14 -40 -30z"/>
<path d="M827 282 l-157 -157 0 -58 0 -57 53 0 52 0 165 165 165 165 -50 50
c-27 27 -54 50 -60 50 -6 0 -81 -71 -168 -158z"/>
<path d="M17 272 c-21 -23 -22 -51 -1 -80 15 -22 19 -22 238 -22 203 0 224 2
239 18 22 24 21 65 -1 85 -16 15 -48 17 -239 17 -200 0 -221 -2 -236 -18z"/>
</g>
</svg>
